<svg width="580" height="512" viewBox="0 0 580 512" fill="none" xmlns="http://www.w3.org/2000/svg">
<path fill-rule="evenodd" clip-rule="evenodd" d="M278 212.688V200.326C278 197.428 277.744 194.589 277.253 191.828C273.609 171.331 257.013 155.174 236 151.696C233.237 151.238 230.397 151 227.5 151H177V311.674C177 316.26 173.194 319.977 168.5 319.977L139.333 320.312C127.551 320.312 118 310.91 118 299.312V311.674C118 336.087 136.157 356.357 160 360.304C162.763 360.762 165.603 361 168.5 361C171.397 361 174.237 360.762 177 360.304C184.742 359.023 191.884 356.02 198 351.714C210.72 342.757 219 328.16 219 311.674V200.13C219 195.545 222.806 191.828 227.5 191.828L256.667 191.688C268.449 191.688 278 201.09 278 212.688Z" fill="#2A5D9E"/>
<path d="M118 285.4V299.312C118 310.91 127.551 320.312 139.333 320.312L168.5 319.977C163.806 319.977 160 316.26 160 311.674L160 285.4H118Z" fill="url(#paint0_linear_875_844)"/>
<path d="M278 212.688C278 201.09 268.449 191.688 256.667 191.688L227.5 191.828C232.194 191.828 236 195.545 236 200.13V308.451C236 328.394 227.477 346.393 213.796 359.162C213.126 359.787 212.443 360.4 211.749 361H227.5C230.397 361 233.237 360.762 236 360.304C259.843 356.357 278 336.087 278 311.674V212.688Z" fill="url(#paint1_linear_875_844)"/>
<path d="M314.816 273.672C311.36 273.672 308.608 272.728 306.56 270.84C304.544 268.952 303.536 266.312 303.536 262.92V259.752H309.872V262.92C309.872 264.424 310.288 265.608 311.12 266.472C311.952 267.304 313.12 267.72 314.624 267.72C316.032 267.72 317.12 267.304 317.888 266.472C318.688 265.64 319.088 264.456 319.088 262.92V245.16H313.328V239.4H329.264V245.16H325.424V262.92C325.424 266.408 324.48 269.08 322.592 270.936C320.704 272.76 318.112 273.672 314.816 273.672ZM332.536 282.6V249.192H338.488V252.072H339.352C339.896 251.144 340.744 250.328 341.896 249.624C343.048 248.888 344.696 248.52 346.84 248.52C348.76 248.52 350.536 249 352.168 249.96C353.8 250.888 355.112 252.264 356.104 254.088C357.096 255.912 357.592 258.12 357.592 260.712V261.48C357.592 264.072 357.096 266.28 356.104 268.104C355.112 269.928 353.8 271.32 352.168 272.28C350.536 273.208 348.76 273.672 346.84 273.672C345.4 273.672 344.184 273.496 343.192 273.144C342.232 272.824 341.448 272.408 340.84 271.896C340.264 271.352 339.8 270.808 339.448 270.264H338.584V282.6H332.536ZM345.016 268.392C346.904 268.392 348.456 267.8 349.672 266.616C350.92 265.4 351.544 263.64 351.544 261.336V260.856C351.544 258.552 350.92 256.808 349.672 255.624C348.424 254.408 346.872 253.8 345.016 253.8C343.16 253.8 341.608 254.408 340.36 255.624C339.112 256.808 338.488 258.552 338.488 260.856V261.336C338.488 263.64 339.112 265.4 340.36 266.616C341.608 267.8 343.16 268.392 345.016 268.392ZM361.514 273V267.432H365.93V244.968H361.514V239.4H375.338C379.85 239.4 383.274 240.552 385.61 242.856C387.978 245.128 389.162 248.52 389.162 253.032V259.368C389.162 263.88 387.978 267.288 385.61 269.592C383.274 271.864 379.85 273 375.338 273H361.514ZM372.266 267.24H375.434C377.994 267.24 379.866 266.568 381.05 265.224C382.234 263.88 382.826 261.992 382.826 259.56V252.84C382.826 250.376 382.234 248.488 381.05 247.176C379.866 245.832 377.994 245.16 375.434 245.16H372.266V267.24ZM405.002 273.672C402.634 273.672 400.538 273.176 398.714 272.184C396.922 271.16 395.514 269.736 394.49 267.912C393.498 266.056 393.002 263.88 393.002 261.384V260.808C393.002 258.312 393.498 256.152 394.49 254.328C395.482 252.472 396.874 251.048 398.666 250.056C400.458 249.032 402.538 248.52 404.906 248.52C407.242 248.52 409.274 249.048 411.002 250.104C412.73 251.128 414.074 252.568 415.034 254.424C415.994 256.248 416.474 258.376 416.474 260.808V262.872H399.146C399.21 264.504 399.818 265.832 400.97 266.856C402.122 267.88 403.53 268.392 405.194 268.392C406.89 268.392 408.138 268.024 408.938 267.288C409.738 266.552 410.346 265.736 410.762 264.84L415.706 267.432C415.258 268.264 414.602 269.176 413.738 270.168C412.906 271.128 411.786 271.96 410.378 272.664C408.97 273.336 407.178 273.672 405.002 273.672ZM399.194 258.36H410.33C410.202 256.984 409.642 255.88 408.65 255.048C407.69 254.216 406.426 253.8 404.858 253.8C403.226 253.8 401.93 254.216 400.97 255.048C400.01 255.88 399.418 256.984 399.194 258.36ZM425.666 273L418.082 249.192H424.514L430.034 268.584H430.898L436.418 249.192H442.85L435.266 273H425.666Z" fill="#2A5D9E"/>
<circle cx="454" cy="265" r="8" fill="#FFD166"/>
<defs>
<linearGradient id="paint0_linear_875_844" x1="198" y1="151" x2="198" y2="361" gradientUnits="userSpaceOnUse">
<stop offset="0.548077" stop-color="#2A5D9E"/>
<stop offset="0.75" stop-color="#13355E"/>
</linearGradient>
<linearGradient id="paint1_linear_875_844" x1="198" y1="151" x2="198" y2="361" gradientUnits="userSpaceOnUse">
<stop offset="0.283654" stop-color="#13355E"/>
<stop offset="0.4375" stop-color="#2A5D9E"/>
<stop offset="0.725962" stop-color="#13355E"/>
</linearGradient>
</defs>
</svg>
