<svg width="300" height="160" viewBox="0 0 300 160" fill="none" xmlns="http://www.w3.org/2000/svg">
<path fill-rule="evenodd" clip-rule="evenodd" d="M108.42 55.25V48.186C108.42 46.5302 108.274 44.9077 107.994 43.3302C105.911 31.6178 96.4277 22.3854 84.4203 20.3976C82.8412 20.1361 81.2184 20 79.5631 20H50.706V111.814C50.706 114.434 48.5314 116.558 45.8488 116.558L29.1822 116.75C22.4496 116.75 16.9917 111.377 16.9917 104.75V111.814C16.9917 125.764 27.3671 137.347 40.9917 139.602C42.5708 139.864 44.1935 140 45.8488 140C47.5041 140 49.1269 139.864 50.706 139.602C55.1299 138.87 59.2112 137.154 62.706 134.693C69.9745 129.575 74.706 121.234 74.706 111.814V48.0744C74.706 45.4543 76.8806 43.3302 79.5631 43.3302L96.2298 43.25C102.962 43.25 108.42 48.6226 108.42 55.25Z" fill="#2A5D9E"/>
<path d="M16.9917 96.8V104.75C16.9917 111.377 22.4496 116.75 29.1822 116.75L45.8488 116.558C43.1663 116.558 40.9917 114.434 40.9917 111.814L40.9917 96.8H16.9917Z" fill="url(#paint0_linear_1113_1020)"/>
<path d="M108.42 55.25C108.42 48.6226 102.962 43.25 96.2298 43.25L79.5631 43.3302C82.2456 43.3302 84.4203 45.4543 84.4203 48.0744V109.972C84.4203 121.368 79.5503 131.653 71.7321 138.95C71.3493 139.307 70.9594 139.657 70.5626 140H79.5631C81.2184 140 82.8412 139.864 84.4203 139.602C98.0449 137.347 108.42 125.764 108.42 111.814V55.25Z" fill="url(#paint1_linear_1113_1020)"/>
<path d="M140.416 96.7228C137.735 96.7228 135.491 96.1807 133.684 95.0965C131.877 94.0122 130.507 92.5365 129.573 90.6692C128.64 88.7718 128.158 86.6334 128.128 84.2541L135.988 83.8927C136.049 86.1214 136.455 87.7478 137.208 88.7718C137.991 89.7958 139.06 90.3078 140.416 90.3078C141.741 90.3078 142.78 89.8409 143.533 88.9073C144.316 87.9435 144.707 86.4226 144.707 84.3445V63.9247H152.568V84.3445C152.568 86.8744 152.056 89.0729 151.032 90.9402C150.008 92.7774 148.578 94.208 146.74 95.232C144.933 96.2259 142.825 96.7228 140.416 96.7228ZM157.706 102.776V71.6951H165.25L165.386 76.8L164.798 76.5741C165.401 74.8273 166.364 73.4871 167.69 72.5534C169.045 71.6198 170.641 71.1529 172.478 71.1529C174.677 71.1529 176.529 71.7101 178.035 72.8245C179.541 73.9087 180.685 75.4146 181.468 77.3421C182.251 79.2395 182.643 81.408 182.643 83.8475C182.643 86.2569 182.236 88.4254 181.423 90.3529C180.64 92.2805 179.481 93.8014 177.945 94.9158C176.439 96 174.586 96.5421 172.388 96.5421C171.213 96.5421 170.114 96.3313 169.09 95.9096C168.096 95.4579 167.223 94.8405 166.47 94.0574C165.747 93.2442 165.22 92.2955 164.889 91.2113L165.476 90.9402V102.776H157.706ZM170.039 90.8047C171.454 90.8047 172.569 90.1873 173.382 88.9525C174.225 87.6875 174.647 85.9859 174.647 83.8475C174.647 81.7092 174.225 80.0226 173.382 78.7878C172.569 77.5228 171.454 76.8904 170.039 76.8904C169.075 76.8904 168.247 77.1614 167.554 77.7035C166.891 78.2155 166.379 78.9835 166.018 80.0075C165.657 81.0315 165.476 82.3115 165.476 83.8475C165.476 85.3835 165.657 86.6635 166.018 87.6875C166.379 88.7115 166.891 89.4946 167.554 90.0367C168.247 90.5487 169.075 90.8047 170.039 90.8047ZM186.831 96V63.9247H198.26C203.561 63.9247 207.627 65.3252 210.458 68.1261C213.319 70.8969 214.75 74.8574 214.75 80.0075C214.75 85.1275 213.349 89.0729 210.548 91.8438C207.747 94.6146 203.742 96 198.531 96H186.831ZM194.691 89.5849H198.26C201.152 89.5849 203.275 88.8019 204.63 87.2358C205.985 85.6696 206.663 83.2452 206.663 79.9624C206.663 76.6795 205.985 74.2551 204.63 72.6889C203.275 71.1228 201.152 70.3398 198.26 70.3398H194.691V89.5849ZM230.944 96.5421C228.414 96.5421 226.2 96.0151 224.303 94.9609C222.406 93.9068 220.93 92.4311 219.876 90.5336C218.822 88.6362 218.295 86.4075 218.295 83.8475C218.295 81.2875 218.822 79.0739 219.876 77.2066C220.93 75.3092 222.391 73.8334 224.258 72.7793C226.155 71.6951 228.369 71.1529 230.899 71.1529C233.429 71.1529 235.612 71.6951 237.449 72.7793C239.317 73.8334 240.747 75.3544 241.741 77.3421C242.735 79.3299 243.232 81.6941 243.232 84.4348V85.8805H226.336C226.426 87.5671 226.893 88.832 227.736 89.6753C228.61 90.4885 229.724 90.8951 231.08 90.8951C232.104 90.8951 232.962 90.6993 233.655 90.3078C234.347 89.8861 234.844 89.2085 235.145 88.2748L242.916 88.7266C242.253 91.2565 240.853 93.1991 238.714 94.5544C236.576 95.8795 233.986 96.5421 230.944 96.5421ZM226.336 81.4532H235.371C235.311 79.8569 234.874 78.6673 234.061 77.8842C233.248 77.0711 232.194 76.6645 230.899 76.6645C229.664 76.6645 228.625 77.0861 227.782 77.9294C226.968 78.7727 226.487 79.9473 226.336 81.4532ZM253.165 96L244.265 71.6951H252.352L257.682 88.2296L262.968 71.6951H271.01L262.11 96H253.165Z" fill="#2A5D9E"/>
<circle cx="281.714" cy="88.4706" r="7.52941" fill="#FFD166"/>
<defs>
<linearGradient id="paint0_linear_1113_1020" x1="62.706" y1="20" x2="62.706" y2="140" gradientUnits="userSpaceOnUse">
<stop offset="0.548077" stop-color="#2A5D9E"/>
<stop offset="0.75" stop-color="#13355E"/>
</linearGradient>
<linearGradient id="paint1_linear_1113_1020" x1="62.706" y1="20" x2="62.706" y2="140" gradientUnits="userSpaceOnUse">
<stop offset="0.283654" stop-color="#13355E"/>
<stop offset="0.4375" stop-color="#2A5D9E"/>
<stop offset="0.725962" stop-color="#13355E"/>
</linearGradient>
</defs>
</svg>
