<svg width="580" height="512" viewBox="0 0 580 512" fill="none" xmlns="http://www.w3.org/2000/svg">
<path fill-rule="evenodd" clip-rule="evenodd" d="M370 212.688V200.326C370 197.428 369.744 194.589 369.253 191.828C365.609 171.331 349.013 155.174 328 151.696C325.237 151.238 322.397 151 319.5 151H269V311.674C269 316.26 265.194 319.977 260.5 319.977L231.333 320.312C219.551 320.312 210 310.91 210 299.312V311.674C210 336.087 228.157 356.357 252 360.304C254.763 360.762 257.603 361 260.5 361C263.397 361 266.237 360.762 269 360.304C276.742 359.023 283.884 356.02 290 351.714C302.72 342.757 311 328.16 311 311.674V200.13C311 195.545 314.806 191.828 319.5 191.828L348.667 191.688C360.449 191.688 370 201.09 370 212.688Z" fill="#2A5D9E"/>
<path d="M210 285.4V299.312C210 310.91 219.551 320.312 231.333 320.312L260.5 319.977C255.806 319.977 252 316.26 252 311.674L252 285.4H210Z" fill="url(#paint0_linear_875_850)"/>
<path d="M370 212.688C370 201.09 360.449 191.688 348.667 191.688L319.5 191.828C324.194 191.828 328 195.545 328 200.13V308.451C328 328.394 319.477 346.393 305.796 359.162C305.126 359.787 304.443 360.4 303.749 361H319.5C322.397 361 325.237 360.762 328 360.304C351.843 356.357 370 336.087 370 311.674V212.688Z" fill="url(#paint1_linear_875_850)"/>
<defs>
<linearGradient id="paint0_linear_875_850" x1="290" y1="151" x2="290" y2="361" gradientUnits="userSpaceOnUse">
<stop offset="0.548077" stop-color="#2A5D9E"/>
<stop offset="0.75" stop-color="#13355E"/>
</linearGradient>
<linearGradient id="paint1_linear_875_850" x1="290" y1="151" x2="290" y2="361" gradientUnits="userSpaceOnUse">
<stop offset="0.283654" stop-color="#13355E"/>
<stop offset="0.4375" stop-color="#2A5D9E"/>
<stop offset="0.725962" stop-color="#13355E"/>
</linearGradient>
</defs>
</svg>
