<svg width="420" height="100" viewBox="0 0 420 100" fill="none" xmlns="http://www.w3.org/2000/svg">
<path d="M142.76 66.7228C140.08 66.7228 137.836 66.1807 136.029 65.0965C134.222 64.0122 132.852 62.5365 131.918 60.6692C130.984 58.7718 130.502 56.6334 130.472 54.2541L138.333 53.8927C138.393 56.1214 138.8 57.7478 139.553 58.7718C140.336 59.7958 141.405 60.3078 142.76 60.3078C144.086 60.3078 145.125 59.8409 145.878 58.9073C146.661 57.9435 147.052 56.4226 147.052 54.3445V33.9247H154.913V54.3445C154.913 56.8744 154.401 59.0729 153.377 60.9402C152.353 62.7774 150.922 64.208 149.085 65.232C147.278 66.2259 145.17 66.7228 142.76 66.7228ZM160.05 72.7765V41.6951H167.595L167.73 46.8L167.143 46.5741C167.745 44.8273 168.709 43.4871 170.034 42.5534C171.39 41.6198 172.986 41.1529 174.823 41.1529C177.022 41.1529 178.874 41.7101 180.38 42.8245C181.886 43.9087 183.03 45.4146 183.813 47.3421C184.596 49.2395 184.988 51.408 184.988 53.8475C184.988 56.2569 184.581 58.4254 183.768 60.3529C182.985 62.2805 181.825 63.8014 180.289 64.9158C178.783 66 176.931 66.5421 174.733 66.5421C173.558 66.5421 172.459 66.3313 171.435 65.9096C170.441 65.4579 169.567 64.8405 168.814 64.0574C168.092 63.2442 167.565 62.2955 167.233 61.2113L167.821 60.9402V72.7765H160.05ZM172.383 60.8047C173.799 60.8047 174.913 60.1873 175.726 58.9525C176.57 57.6875 176.991 55.9859 176.991 53.8475C176.991 51.7092 176.57 50.0226 175.726 48.7878C174.913 47.5228 173.799 46.8904 172.383 46.8904C171.42 46.8904 170.591 47.1614 169.899 47.7035C169.236 48.2155 168.724 48.9835 168.363 50.0075C168.001 51.0315 167.821 52.3115 167.821 53.8475C167.821 55.3835 168.001 56.6635 168.363 57.6875C168.724 58.7115 169.236 59.4946 169.899 60.0367C170.591 60.5487 171.42 60.8047 172.383 60.8047ZM189.175 66V33.9247H200.605C205.906 33.9247 209.972 35.3252 212.803 38.1261C215.664 40.8969 217.094 44.8574 217.094 50.0075C217.094 55.1275 215.694 59.0729 212.893 61.8438C210.092 64.6146 206.086 66 200.876 66H189.175ZM197.036 59.5849H200.605C203.496 59.5849 205.62 58.8019 206.975 57.2358C208.33 55.6696 209.008 53.2452 209.008 49.9624C209.008 46.6795 208.33 44.2551 206.975 42.6889C205.62 41.1228 203.496 40.3398 200.605 40.3398H197.036V59.5849ZM233.289 66.5421C230.759 66.5421 228.545 66.0151 226.648 64.9609C224.75 63.9068 223.275 62.4311 222.22 60.5336C221.166 58.6362 220.639 56.4075 220.639 53.8475C220.639 51.2875 221.166 49.0739 222.22 47.2066C223.275 45.3092 224.735 43.8334 226.603 42.7793C228.5 41.6951 230.714 41.1529 233.244 41.1529C235.773 41.1529 237.957 41.6951 239.794 42.7793C241.661 43.8334 243.092 45.3544 244.086 47.3421C245.08 49.3299 245.577 51.6941 245.577 54.4348V55.8805H228.681C228.771 57.5671 229.238 58.832 230.081 59.6753C230.955 60.4885 232.069 60.8951 233.424 60.8951C234.448 60.8951 235.307 60.6993 235.999 60.3078C236.692 59.8861 237.189 59.2085 237.49 58.2748L245.26 58.7266C244.598 61.2565 243.197 63.1991 241.059 64.5544C238.921 65.8795 236.331 66.5421 233.289 66.5421ZM228.681 51.4532H237.716C237.656 49.8569 237.219 48.6673 236.406 47.8842C235.593 47.0711 234.539 46.6645 233.244 46.6645C232.009 46.6645 230.97 47.0861 230.126 47.9294C229.313 48.7727 228.831 49.9473 228.681 51.4532ZM255.51 66L246.61 41.6951H254.696L260.027 58.2296L265.313 41.6951H273.354L264.454 66H255.51Z" fill="#2A5D9E"/>
<circle cx="283.942" cy="58.4706" r="7.52941" fill="#FFD166"/>
</svg>
