<svg width="580" height="512" viewBox="0 0 580 512" fill="none" xmlns="http://www.w3.org/2000/svg">
<path d="M222.816 273.672C219.36 273.672 216.608 272.728 214.56 270.84C212.544 268.952 211.536 266.312 211.536 262.92V259.752H217.872V262.92C217.872 264.424 218.288 265.608 219.12 266.472C219.952 267.304 221.12 267.72 222.624 267.72C224.032 267.72 225.12 267.304 225.888 266.472C226.688 265.64 227.088 264.456 227.088 262.92V245.16H221.328V239.4H237.264V245.16H233.424V262.92C233.424 266.408 232.48 269.08 230.592 270.936C228.704 272.76 226.112 273.672 222.816 273.672ZM240.536 282.6V249.192H246.488V252.072H247.352C247.896 251.144 248.744 250.328 249.896 249.624C251.048 248.888 252.696 248.52 254.84 248.52C256.76 248.52 258.536 249 260.168 249.96C261.8 250.888 263.112 252.264 264.104 254.088C265.096 255.912 265.592 258.12 265.592 260.712V261.48C265.592 264.072 265.096 266.28 264.104 268.104C263.112 269.928 261.8 271.32 260.168 272.28C258.536 273.208 256.76 273.672 254.84 273.672C253.4 273.672 252.184 273.496 251.192 273.144C250.232 272.824 249.448 272.408 248.84 271.896C248.264 271.352 247.8 270.808 247.448 270.264H246.584V282.6H240.536ZM253.016 268.392C254.904 268.392 256.456 267.8 257.672 266.616C258.92 265.4 259.544 263.64 259.544 261.336V260.856C259.544 258.552 258.92 256.808 257.672 255.624C256.424 254.408 254.872 253.8 253.016 253.8C251.16 253.8 249.608 254.408 248.36 255.624C247.112 256.808 246.488 258.552 246.488 260.856V261.336C246.488 263.64 247.112 265.4 248.36 266.616C249.608 267.8 251.16 268.392 253.016 268.392ZM269.514 273V267.432H273.93V244.968H269.514V239.4H283.338C287.85 239.4 291.274 240.552 293.61 242.856C295.978 245.128 297.162 248.52 297.162 253.032V259.368C297.162 263.88 295.978 267.288 293.61 269.592C291.274 271.864 287.85 273 283.338 273H269.514ZM280.266 267.24H283.434C285.994 267.24 287.866 266.568 289.05 265.224C290.234 263.88 290.826 261.992 290.826 259.56V252.84C290.826 250.376 290.234 248.488 289.05 247.176C287.866 245.832 285.994 245.16 283.434 245.16H280.266V267.24ZM313.002 273.672C310.634 273.672 308.538 273.176 306.714 272.184C304.922 271.16 303.514 269.736 302.49 267.912C301.498 266.056 301.002 263.88 301.002 261.384V260.808C301.002 258.312 301.498 256.152 302.49 254.328C303.482 252.472 304.874 251.048 306.666 250.056C308.458 249.032 310.538 248.52 312.906 248.52C315.242 248.52 317.274 249.048 319.002 250.104C320.73 251.128 322.074 252.568 323.034 254.424C323.994 256.248 324.474 258.376 324.474 260.808V262.872H307.146C307.21 264.504 307.818 265.832 308.97 266.856C310.122 267.88 311.53 268.392 313.194 268.392C314.89 268.392 316.138 268.024 316.938 267.288C317.738 266.552 318.346 265.736 318.762 264.84L323.706 267.432C323.258 268.264 322.602 269.176 321.738 270.168C320.906 271.128 319.786 271.96 318.378 272.664C316.97 273.336 315.178 273.672 313.002 273.672ZM307.194 258.36H318.33C318.202 256.984 317.642 255.88 316.65 255.048C315.69 254.216 314.426 253.8 312.858 253.8C311.226 253.8 309.93 254.216 308.97 255.048C308.01 255.88 307.418 256.984 307.194 258.36ZM333.666 273L326.082 249.192H332.514L338.034 268.584H338.898L344.418 249.192H350.85L343.266 273H333.666Z" fill="#2A5D9E"/>
<circle cx="362" cy="265" r="8" fill="#FFD166"/>
</svg>
